<svg width="84" height="68" viewBox="0 0 84 68" fill="none" xmlns="http://www.w3.org/2000/svg">
<mask id="mask0_1_45" style="mask-type:luminance" maskUnits="userSpaceOnUse" x="17" y="0" width="49" height="48">
<path d="M17.6286 0H65.3022V47.6701H17.6286V0Z" fill="white"/>
</mask>
<g mask="url(#mask0_1_45)">
<path d="M42.563 33.7319C45.4665 31.0517 50.4694 27.7988 58.2285 26.8472L53.9004 16.4436C53.9004 16.4436 48.4568 14.8825 43.2211 18.5262C49.3906 13.1586 56.3965 15.1676 56.3965 15.1676L63.078 30.0704C54.1559 27.4686 45.6198 31.8691 42.563 33.7319ZM41.3702 31.8441C37.7977 29.2815 29.3532 24.2751 19.8643 26.0619L28.0451 11.7449C28.0451 11.7449 36.4054 12.0431 42.5927 18.5892L41.3702 31.8441ZM20.0865 30.3626L21.9944 26.3969C23.2823 26.2924 24.544 26.3043 25.7688 26.4076L25.5229 26.9577C32.9006 28.0626 37.9486 31.0089 41.1943 33.7521C41.1943 33.7521 30.7752 27.1312 20.0865 30.3626ZM22.8011 34.6966L24.9206 30.2902C26.1811 30.2509 27.4143 30.3163 28.6095 30.46L28.2376 31.2917C33.6907 32.109 37.8714 33.9315 40.9924 35.9345C40.9924 35.9345 30.4949 31.7004 22.8011 34.6966ZM41.4712 0.00228882C28.3065 0.00228882 17.6343 10.6744 17.6343 23.8403C17.6343 37.005 28.3065 47.6771 41.4712 47.6771C54.6358 47.6771 65.308 37.005 65.308 23.8403C65.308 10.6744 54.6358 0.00228882 41.4712 0.00228882Z" fill="#274082"/>
</g>
<path d="M6.62926 61.6697C7.11041 61.9204 7.48465 62.2732 7.75077 62.7294C8.01926 63.1856 8.1547 63.7084 8.1547 64.2976C8.1547 64.8845 7.99907 65.4191 7.68899 65.9039C7.38129 66.3862 6.96191 66.7688 6.42967 67.0539C5.8998 67.3366 5.32004 67.4768 4.69038 67.4768H0V56.4566H4.56682C5.19648 56.4566 5.7608 56.5801 6.25859 56.8272C6.75519 57.0744 7.14843 57.4141 7.43712 57.8442C7.72819 58.2719 7.87432 58.7542 7.87432 59.2889C7.87432 59.7617 7.76265 60.2084 7.54167 60.629C7.31951 61.0472 7.01537 61.3941 6.62926 61.6697ZM5.56002 59.669C5.56002 59.3209 5.44835 59.037 5.22737 58.8184C5.00521 58.5974 4.70582 58.4857 4.32921 58.4857H2.34756V60.8333H4.32921C4.70582 60.8333 5.00521 60.724 5.22737 60.5054C5.44835 60.2844 5.56002 60.0052 5.56002 59.669ZM4.45752 65.2861C4.8567 65.2861 5.17272 65.172 5.40795 64.9439C5.64556 64.7134 5.76437 64.4141 5.76437 64.0458C5.76437 63.6882 5.64556 63.3935 5.40795 63.1619C5.17272 62.9314 4.8567 62.815 4.45752 62.815H2.34756V65.2861H4.45752Z" fill="#313132"/>
<path d="M15.8056 67.7144C14.9657 67.7144 14.1875 67.5695 13.4723 67.282C12.7595 66.9909 12.1381 66.5858 11.6094 66.0654C11.0796 65.5463 10.6685 64.938 10.3739 64.2406C10.0793 63.5444 9.93194 62.7853 9.93194 61.9643C9.93194 61.147 10.0793 60.3902 10.3739 59.6928C10.6685 58.993 11.0796 58.3836 11.6094 57.8632C12.1381 57.344 12.7595 56.9401 13.4723 56.6514C14.1875 56.3639 14.9657 56.219 15.8056 56.219C16.6444 56.219 17.4213 56.3639 18.1342 56.6514C18.8494 56.9401 19.4695 57.344 19.9923 57.8632C20.5174 58.3836 20.9261 58.993 21.2183 59.6928C21.5129 60.3902 21.6603 61.147 21.6603 61.9643C21.6603 62.7853 21.5129 63.5444 21.2183 64.2406C20.9261 64.938 20.5174 65.5463 19.9923 66.0654C19.4695 66.5858 18.8494 66.9909 18.1342 67.282C17.4213 67.5695 16.6444 67.7144 15.8056 67.7144ZM15.8056 65.4619C16.4673 65.4619 17.0578 65.3098 17.5782 65.0057C18.0973 64.7016 18.506 64.2869 18.8042 63.7606C19.1048 63.2355 19.2557 62.6368 19.2557 61.9643C19.2557 61.3062 19.1048 60.7121 18.8042 60.1823C18.506 59.65 18.0973 59.2318 17.5782 58.9277C17.0578 58.6236 16.4673 58.4715 15.8056 58.4715C15.1557 58.4715 14.5677 58.6236 14.0426 58.9277C13.5163 59.2318 13.1016 59.65 12.7975 60.1823C12.4934 60.7121 12.3413 61.3062 12.3413 61.9643C12.3413 62.6273 12.4934 63.2236 12.7975 63.7559C13.1016 64.2858 13.5163 64.7016 14.0426 65.0057C14.5677 65.3098 15.1557 65.4619 15.8056 65.4619Z" fill="#313132"/>
<path d="M29.233 67.7144C28.393 67.7144 27.6149 67.5695 26.8997 67.282C26.1868 66.9909 25.5655 66.5858 25.0368 66.0654C24.507 65.5463 24.0959 64.938 23.8013 64.2406C23.5066 63.5444 23.3593 62.7853 23.3593 61.9643C23.3593 61.147 23.5066 60.3902 23.8013 59.6928C24.0959 58.993 24.507 58.3836 25.0368 57.8632C25.5655 57.344 26.1868 56.9401 26.8997 56.6514C27.6149 56.3639 28.393 56.219 29.233 56.219C30.0717 56.219 30.8487 56.3639 31.5615 56.6514C32.2767 56.9401 32.8969 57.344 33.4196 57.8632C33.9447 58.3836 34.3534 58.993 34.6457 59.6928C34.9403 60.3902 35.0876 61.147 35.0876 61.9643C35.0876 62.7853 34.9403 63.5444 34.6457 64.2406C34.3534 64.938 33.9447 65.5463 33.4196 66.0654C32.8969 66.5858 32.2767 66.9909 31.5615 67.282C30.8487 67.5695 30.0717 67.7144 29.233 67.7144ZM29.233 65.4619C29.8947 65.4619 30.4852 65.3098 31.0055 65.0057C31.5247 64.7016 31.9334 64.2869 32.2316 63.7606C32.5322 63.2355 32.683 62.6368 32.683 61.9643C32.683 61.3062 32.5322 60.7121 32.2316 60.1823C31.9334 59.65 31.5247 59.2318 31.0055 58.9277C30.4852 58.6236 29.8947 58.4715 29.233 58.4715C28.5831 58.4715 27.995 58.6236 27.4699 58.9277C26.9436 59.2318 26.529 59.65 26.2249 60.1823C25.9207 60.7121 25.7686 61.3062 25.7686 61.9643C25.7686 62.6273 25.9207 63.2236 26.2249 63.7559C26.529 64.2858 26.9436 64.7016 27.4699 65.0057C27.995 65.3098 28.5831 65.4619 29.233 65.4619Z" fill="#313132"/>
<path d="M46.6284 67.4768H43.7153L39.8281 62.0926V67.4768H37.433V56.4566H39.8281V61.5414L43.4302 56.4566H46.2197L42.456 61.7315L46.6284 67.4768Z" fill="#313132"/>
<path d="M59.0953 61.6697C59.5765 61.9204 59.9507 62.2732 60.2168 62.7294C60.4853 63.1856 60.6208 63.7084 60.6208 64.2976C60.6208 64.8845 60.4651 65.4191 60.1551 65.9039C59.8474 66.3862 59.428 66.7688 58.8957 67.0539C58.3659 67.3366 57.7861 67.4768 57.1565 67.4768H52.4661V56.4566H57.0329C57.6626 56.4566 58.2269 56.5801 58.7247 56.8272C59.2213 57.0744 59.6145 57.4141 59.9032 57.8442C60.1943 58.2719 60.3404 58.7542 60.3404 59.2889C60.3404 59.7617 60.2287 60.2084 60.0078 60.629C59.7856 61.0472 59.4814 61.3941 59.0953 61.6697ZM58.0261 59.669C58.0261 59.3209 57.9144 59.037 57.6935 58.8184C57.4713 58.5974 57.1719 58.4857 56.7953 58.4857H54.8136V60.8333H56.7953C57.1719 60.8333 57.4713 60.724 57.6935 60.5054C57.9144 60.2844 58.0261 60.0052 58.0261 59.669ZM56.9236 65.2861C57.3228 65.2861 57.6388 65.172 57.874 64.9439C58.1116 64.7134 58.2304 64.4141 58.2304 64.0458C58.2304 63.6882 58.1116 63.3935 57.874 63.1619C57.6388 62.9314 57.3228 62.815 56.9236 62.815H54.8136V65.2861H56.9236Z" fill="#313132"/>
<path d="M70.3673 67.4768L69.5927 65.3811H65.2018L64.4462 67.4768H61.9275L66.2425 56.4566H68.4902L72.9478 67.4768H70.3673ZM67.3877 59.3696L65.9573 63.3044H68.8372L67.3877 59.3696Z" fill="#313132"/>
<path d="M84 56.4566L80.127 63.0193V67.4768H77.6701V63.005L73.8256 56.4566H76.3633L78.9104 60.8666L81.4624 56.4566H84Z" fill="#313132"/>
</svg>
